<?xml version="1.0" encoding="UTF-8"?>
<svg width="500" height="500" viewBox="0 0 500 500" fill="none" xmlns="http://www.w3.org/2000/svg">
  <!-- Fondo -->
  <rect width="500" height="500" fill="#FDF6F2"/>
  
  <!-- Estantería -->
  <rect x="300" y="50" width="150" height="200" fill="#F4C3A8"/>
  <rect x="320" y="70" width="30" height="160" fill="#E6A17C"/>
  <rect x="360" y="70" width="30" height="160" fill="#E6A17C"/>
  <rect x="400" y="70" width="30" height="160" fill="#E6A17C"/>
  
  <!-- Planta -->
  <path d="M380 30c0 0-10-20-30-20s-30 20-30 20h60z" fill="#4A4A4A"/>
  <rect x="365" y="30" width="30" height="40" fill="#E6A17C"/>
  
  <!-- Persona -->
  <circle cx="200" cy="200" r="50" fill="#E6A17C"/> <!-- Cabeza -->
  <path d="M150 250v150c0 0 50 50 100 0v-150h-100z" fill="#B87B5E"/> <!-- Cuerpo -->
  <rect x="150" y="350" width="100" height="50" fill="#F4C3A8"/> <!-- Piernas -->
  
  <!-- Libro -->
  <rect x="175" y="275" width="80" height="60" fill="#4A4A4A"/>
  <path d="M175 275c0 0 0-10 40-10s40 10 40 10" stroke="#E6A17C" stroke-width="2"/>
</svg> 